<?xml version="1.0" encoding="utf-8"?>
<!-- Generator: Adobe Illustrator 18.0.0, SVG Export Plug-In . SVG Version: 6.00 Build 0)  -->
<!DOCTYPE svg PUBLIC "-//W3C//DTD SVG 1.1//EN" "http://www.w3.org/Graphics/SVG/1.1/DTD/svg11.dtd">
<svg version="1.1" id="图层_1" xmlns="http://www.w3.org/2000/svg" xmlns:xlink="http://www.w3.org/1999/xlink" x="0px" y="0px"
	 viewBox="0 0 2126 1133.9" enable-background="new 0 0 2126 1133.9" xml:space="preserve">
<path fill="#D9D9D9" d="M1379.9,909.3l-62.3-64.6c14.3-18,22.5-40.5,22.5-64.6c0-57.8-47.3-105.1-105.1-105.1
	c-57.8,0-105.1,47.3-105.1,105.1s47.3,105.1,105.1,105.1c24,0,45.8-8.3,63.1-21l62.3,64.6c5.3,5.3,14.3,5.3,19.5,0
	C1385.1,923.6,1385.1,914.6,1379.9,909.3z M1234.9,859c-43.6,0-78.8-35.3-78.8-78.8c0-43.6,35.3-78.8,78.8-78.8s78.8,35.3,78.8,78.8
	S1278.5,859,1234.9,859z"/>
<path fill="#D9D9D9" d="M1285.3,777.9c0,6.8-1.5,12.8-3.8,18c-3,7.5,9,12.8,12.8,3.8c0.8-2.3,4.5-14.3,4.5-21.8
	c0-24-14.3-44.3-35.3-53.3c0,0,0,0-0.8,0c-7.5-2.3-12.8,8.3-6,11.3C1273.2,742.6,1285.3,758.4,1285.3,777.9z"/>
</svg>
