<?xml version="1.0" encoding="utf-8"?>
<!-- Generator: Adobe Illustrator 18.0.0, SVG Export Plug-In . SVG Version: 6.00 Build 0)  -->
<!DOCTYPE svg PUBLIC "-//W3C//DTD SVG 1.1//EN" "http://www.w3.org/Graphics/SVG/1.1/DTD/svg11.dtd">
<svg version="1.1" id="图层_1" xmlns="http://www.w3.org/2000/svg" xmlns:xlink="http://www.w3.org/1999/xlink" x="0px" y="0px"
	 viewBox="0 0 2126 1133.9" enable-background="new 0 0 2126 1133.9" xml:space="preserve">
<path id="Fill-4" fill="#FDFDFD" d="M1279.2,461.8h-114.9c-13.5,0-24.8-11.3-24.8-24.8V321.4c0-6.8,8.3-10.5,13.5-6l132.2,132.2
	C1290.5,453.5,1286.8,461.8,1279.2,461.8 M1204.2,575.9H931.6c-8.3,0-15-6.8-15-15c0-8.3,6.8-15,15-15h271.8c8.3,0,15,6.8,15,15
	C1219.2,569.2,1212.4,575.9,1204.2,575.9 M1084,672.1H931.6c-8.3,0-15-6.8-15-15s6.8-15,15-15h151.7c8.3,0,15,6.8,15,15
	C1099,665.3,1092.3,672.1,1084,672.1 M1307.8,433.3l-144.2-144.2c-4.5-4.5-11.3-7.5-18-7.5H888c-33,0-59.3,27-59.3,59.3v456.5
	c0,33,27,59.3,59.3,59.3h368.7c33,0,59.3-27,59.3-59.3V451.3C1315.3,444.5,1313,438.5,1307.8,433.3"/>
</svg>
